<svg width="512" height="512" viewBox="0 0 512 512" fill="none" xmlns="http://www.w3.org/2000/svg">
<path d="M496.969 160.203H416.812C408.25 160.203 400.781 166.668 400.781 175.234V192.266H312.609C304.047 192.266 296.578 198.73 296.578 207.297V376.625H16.0312C15.7539 376.625 15.0312 375.902 15.0312 375.625V343.562H280.547V328.531H15.0312V71.0312C15.0312 70.7539 15.7539 71.0312 16.0312 71.0312H448.875C449.152 71.0312 448.875 70.7539 448.875 71.0312V143.172H463.906V71.0312C463.906 62.4648 457.441 56 448.875 56H16.0312C7.46875 56 0 62.4648 0 71.0312V375.625C0 384.188 7.46875 391.656 16.0312 391.656H184.359V440.75H152.297V455.781H312.609V440.75H279.547V391.656H296.578V407.688C296.578 416.25 304.047 423.719 312.609 423.719H448.875C457.441 423.719 463.906 416.25 463.906 407.688V351.578H496.969C505.535 351.578 512 344.109 512 335.547V175.234C512 166.668 505.535 160.203 496.969 160.203ZM264.516 440.75H199.391V391.656H264.516V440.75ZM416.812 175.234H496.969C497.246 175.234 496.969 174.957 496.969 175.234V192.266H415.812V175.234C415.812 174.957 416.539 175.234 416.812 175.234ZM415.812 207.297H496.969V304.484H415.812V207.297ZM448.875 408.688H312.609C312.336 408.688 311.609 407.965 311.609 407.688V391.656H448.875V407.688C448.875 407.965 449.152 408.688 448.875 408.688ZM448.875 376.625H311.609V207.297C311.609 207.02 312.336 207.297 312.609 207.297H400.781V335.547C400.781 344.109 408.25 351.578 416.812 351.578H448.875V376.625ZM496.969 336.547H416.812C416.539 336.547 415.812 335.824 415.812 335.547V319.516H496.969V335.547C496.969 335.824 497.246 336.547 496.969 336.547Z" fill="black"/>
<path d="M192.375 296.469H208.406V311.5H192.375V296.469Z" fill="black"/>
<path d="M224.438 296.469H240.469V311.5H224.438V296.469Z" fill="black"/>
<path d="M256.5 296.469H272.531V311.5H256.5V296.469Z" fill="black"/>
<path d="M47.0938 127.141V103.094H72.1406V88.0625H32.0625V127.141H47.0938Z" fill="black"/>
<path d="M320.625 247.375H335.656V231.344H352.688V216.312H320.625V247.375Z" fill="black"/>
<path d="M424.828 216.312V247.375H439.859V231.344H456.891V216.312H424.828Z" fill="black"/>
</svg>
