<svg id="Capa_1" enable-background="new 0 0 512 512" height="512" viewBox="0 0 512 512" width="512" xmlns="http://www.w3.org/2000/svg"><path d="m505.506 264.86c-4.111-.562-7.895 2.316-8.456 6.425-3.624 26.54-16.758 50.954-36.984 68.743-20.408 17.949-46.631 27.834-73.842 27.834-14.805 0-29.185-2.844-42.741-8.454-.225-.093-.485-.184-.719-.255-.159-.048-16.156-5.045-39.975-23.953-3.249-2.579-7.972-2.035-10.551 1.213-2.578 3.249-2.035 7.972 1.213 10.551 24.436 19.396 41.604 25.482 44.597 26.449 15.295 6.282 31.501 9.468 48.176 9.468 30.863 0 60.61-11.214 83.761-31.575 22.937-20.173 37.833-47.87 41.946-77.988.56-4.111-2.316-7.897-6.425-8.458z"/><path d="m324.771 307.98c15.938 14.208 35.76 28.732 61.956 28.731h.026c44.487-.017 80.679-36.223 80.679-80.711 0-44.504-36.206-80.71-80.71-80.71-.002 0 0 0-.001 0-30.684 0-51.602 17.818-66.395 33.34-21.646 22.714-70.736 80.957-72.52 83.214-47.065 59.567-75.018 66.74-76.548 67.091-.638.083-1.027.218-1.637.471-12.092 5.004-24.896 7.816-38.054 8.357l-4.763.096c-30.004-.02-58.169-11.757-79.311-33.054-21.158-21.313-32.69-49.597-32.47-79.643.217-29.791 12.127-57.786 33.535-78.827 21.152-20.79 48.927-32.197 78.329-32.197.376 0 .756.002 1.132.005 13.914.139 27.465 2.8 40.282 7.912.791.315 1.582.625 2.38.924 3.909 1.462 38.367 15.38 77.154 64.616 0 0-16.665 20.353-20.519 24.929-7.561-8.237-21.807-23.194-38.982-38.505-15.938-14.208-35.759-28.731-61.954-28.731-.008 0-.02 0-.027 0-2.678 0-5.383.134-8.038.398-4.127.411-7.14 4.088-6.73 8.215s4.096 7.136 8.215 6.73c2.165-.215 4.37-.325 6.557-.325h.028c11.872 0 27.33 2.97 51.955 24.922 17.506 15.607 32.174 31.172 39.132 38.797-10.999 12.653-22.775 25.559-35.566 38.98-18.905 19.837-36.029 28.684-55.524 28.684-36.222 0-65.692-29.47-65.692-65.692 0-22.019 10.954-42.468 29.302-54.702 3.451-2.301 4.383-6.963 2.082-10.414-2.3-3.45-6.962-4.382-10.414-2.082-22.535 15.029-35.989 40.15-35.989 67.201 0 44.503 36.206 80.71 80.71 80.711 30.687 0 51.603-17.818 66.396-33.341 21.646-22.714 73.856-84.901 73.856-84.901.032-.038.063-.077.094-.115 46.203-57.919 73.607-64.943 75.118-65.29.638-.082 1.026-.218 1.637-.471 12.092-5.004 24.895-7.816 38.054-8.358l4.761-.096c26.799.018 52.712 9.655 72.973 27.141 20.074 17.324 33.377 41.207 37.459 67.25.642 4.097 4.484 6.895 8.582 6.256 4.097-.643 6.898-4.485 6.256-8.582-4.633-29.553-19.72-56.647-42.484-76.293-23.006-19.855-52.432-30.79-82.859-30.79-.05 0-.101 0-.152.001l-4.917.099c-.051.001-.102.002-.153.005-14.706.596-29.025 3.693-42.574 9.207-6.283 1.4-34.814 10.605-80.83 67.311-39.585-49.277-74.741-64.244-81.658-66.83-.698-.261-1.391-.533-2.08-.808-14.544-5.801-29.917-8.822-45.693-8.979-33.863-.354-65.849 12.625-90.138 36.498-24.274 23.86-37.779 55.62-38.026 89.43-.248 34.078 12.831 66.158 36.83 90.333 24.001 24.177 55.98 37.492 90.046 37.492.05 0 .101 0 .152-.001l4.917-.099c.051-.001.102-.002.153-.005 14.705-.596 29.025-3.693 42.573-9.207 6.207-1.381 34.049-10.358 78.963-65.024 4.292 4.904 8.646 9.625 13.002 14.084 2.898 2.966 7.652 3.022 10.619.125 2.967-2.898 3.023-7.652.125-10.619-4.728-4.84-9.461-10.004-14.11-15.391 3.944-4.759 18.659-22.693 22.515-27.271 7.558 8.235 21.809 23.197 38.983 38.508zm6.427-88.988c18.905-19.838 36.029-28.684 55.524-28.683 36.222 0 65.692 29.469 65.692 65.692 0 36.209-29.458 65.678-65.667 65.692-.009 0-.017 0-.026 0-11.872 0-27.332-2.97-51.957-24.923-17.509-15.61-32.178-31.178-39.133-38.802 10.998-12.65 22.778-25.557 35.567-38.976z"/></svg>