<svg height="512" viewBox="0 0 64 64" width="512" xmlns="http://www.w3.org/2000/svg"><path d="m59 54h-1v-35h-2v29h-48v-32h25v-2h-25v-4a2 2 0 0 1 2-2h22v-2h-22a4 4 0 0 0 -4 4v44h-1a1 1 0 0 0 -1 1v3a4 4 0 0 0 4 4h48a4 4 0 0 0 4-4v-3a1 1 0 0 0 -1-1zm-51-4h48v4h-15a1 1 0 0 0 -.707.293l-1.707 1.707h-13.172l-1.707-1.707a1 1 0 0 0 -.707-.293h-15zm50 8a2 2 0 0 1 -2 2h-48a2 2 0 0 1 -2-2v-2h16.586l1.707 1.707a1 1 0 0 0 .707.293h14a1 1 0 0 0 .707-.293l1.707-1.707h16.586z"/><path d="m10 10h2v2h-2z"/><path d="m14 10h2v2h-2z"/><path d="m18 10h2v2h-2z"/><path d="m31 52h2v2h-2z"/><path d="m55.707 4.293a1 1 0 0 0 -.707-.293h-16a1 1 0 0 0 -.707.293l-6 6a1 1 0 0 0 0 1.414l14 14c.014.014.033.019.048.032a.964.964 0 0 0 .217.144 1.026 1.026 0 0 0 .092.049.935.935 0 0 0 .7 0 1.026 1.026 0 0 0 .092-.049.964.964 0 0 0 .217-.144c.015-.013.034-.018.048-.032l14-14a1 1 0 0 0 0-1.414zm-10.839 5.707 2.132-3.2 2.132 3.2zm4.806 2-2.674 9.36-2.674-9.36zm-.806-6h4.264l-2.132 3.2zm-5.868 3.2-2.132-3.2h4.264zm-1.868.8h-5.718l3.431-3.43zm1.114 2 2.733 9.565-9.565-9.565zm9.508 0h6.832l-9.565 9.565zm1.114-2 2.287-3.43 3.431 3.43z"/><path d="m17.293 19.293-3 3a1 1 0 0 0 0 1.414l3 3 1.414-1.414-2.293-2.293 2.293-2.293z"/><path d="m24.707 26.707 3-3a1 1 0 0 0 0-1.414l-3-3-1.414 1.414 2.293 2.293-2.293 2.293z"/><path d="m16.877 22h8.246v2h-8.246z" transform="matrix(.243 -.97 .97 .243 -6.407 37.795)"/><path d="m11 30h2v2h-2z"/><path d="m11 34h2v2h-2z"/><path d="m11 38h2v2h-2z"/><path d="m11 42h2v2h-2z"/><path d="m15 30h15v2h-15z"/><path d="m15 34h23v2h-23z"/><path d="m15 38h31v2h-31z"/><path d="m15 42h22v2h-22z"/><path d="m32 30h2v2h-2z"/><path d="m39 42h2v2h-2z"/><path d="m40 34h4v2h-4z"/><path d="m48 38h4v2h-4z"/><path d="m2 10h2v25h-2z"/><path d="m60 29h2v20h-2z"/><path d="m60 25h2v2h-2z"/></svg>