<svg height="496pt" viewBox="0 0 496 496" width="496pt" xmlns="http://www.w3.org/2000/svg"><path d="m352 184h-.96875c-33.625 0-66.359375-11.847656-92.183594-33.375l-5.726562-4.769531c-2.953125-2.472657-7.28125-2.472657-10.234375 0l-5.734375 4.777343c-25.824219 21.519532-58.558594 33.367188-92.183594 33.367188h-.96875c-4.425781 0-8 3.585938-8 8v134.089844c0 28.863281 14.167969 55.910156 37.902344 72.351562l69.539062 48.144532c1.375.933593 2.964844 1.414062 4.558594 1.414062s3.183594-.480469 4.550781-1.425781l69.539063-48.140625c23.742187-16.433594 37.910156-43.480469 37.910156-72.34375v-134.089844c0-4.414062-3.574219-8-8-8zm-8 142.089844c0 23.613281-11.59375 45.742187-31.015625 59.191406l-64.984375 44.992188-64.984375-44.992188c-19.421875-13.449219-31.015625-35.578125-31.015625-59.191406v-126.25c34.863281-1.542969 68.503906-14.511719 95.390625-36.929688l.609375-.503906.601562.503906c26.886719 22.410156 60.527344 35.386719 95.398438 36.929688zm0 0"/><path d="m488 0h-480c-4.425781 0-8 3.585938-8 8v480c0 4.425781 3.574219 8 8 8h480c4.425781 0 8-3.574219 8-8v-480c0-4.414062-3.574219-8-8-8zm-8 16v80h-464v-80zm-464 464v-368h464v368zm0 0"/><path d="m56 80c13.230469 0 24-10.769531 24-24s-10.769531-24-24-24-24 10.769531-24 24 10.769531 24 24 24zm0-32c4.414062 0 8 3.59375 8 8s-3.585938 8-8 8-8-3.59375-8-8 3.585938-8 8-8zm0 0"/><path d="m120 80c13.230469 0 24-10.769531 24-24s-10.769531-24-24-24-24 10.769531-24 24 10.769531 24 24 24zm0-32c4.414062 0 8 3.59375 8 8s-3.585938 8-8 8-8-3.59375-8-8 3.585938-8 8-8zm0 0"/><path d="m184 80c13.230469 0 24-10.769531 24-24s-10.769531-24-24-24-24 10.769531-24 24 10.769531 24 24 24zm0-32c4.414062 0 8 3.59375 8 8s-3.585938 8-8 8-8-3.59375-8-8 3.585938-8 8-8zm0 0"/><path d="m216 224v40h-40c-4.425781 0-8 3.574219-8 8v48c0 4.425781 3.574219 8 8 8h40v40c0 4.425781 3.574219 8 8 8h48c4.425781 0 8-3.574219 8-8v-40h40c4.425781 0 8-3.574219 8-8v-48c0-4.425781-3.574219-8-8-8h-40v-40c0-4.414062-3.574219-8-8-8h-48c-4.425781 0-8 3.585938-8 8zm16 48v-40h32v40c0 4.425781 3.574219 8 8 8h40v32h-40c-4.425781 0-8 3.574219-8 8v40h-32v-40c0-4.425781-3.574219-8-8-8h-40v-32h40c4.425781 0 8-3.574219 8-8zm0 0"/></svg>