<svg width="52" height="50" viewBox="0 0 52 50" fill="none" xmlns="http://www.w3.org/2000/svg">
<path d="M51.911 15.242C51.152 6.88799 45.239 0.826989 37.839 0.826989C32.909 0.826989 28.395 3.47999 25.855 7.73199C23.338 3.42499 19.009 0.825989 14.158 0.825989C6.75901 0.825989 0.845007 6.88699 0.0870074 15.241C0.0270074 15.61 -0.218993 17.552 0.529007 20.719C1.60701 25.287 4.09701 29.442 7.72801 32.732L25.843 49.171L44.269 32.733C47.9 29.442 50.39 25.288 51.468 20.719C52.216 17.553 51.97 15.611 51.911 15.242ZM15.999 8.90399C11.588 8.90399 7.99901 12.493 7.99901 16.904C7.99901 17.457 7.55201 17.904 6.99901 17.904C6.44601 17.904 5.99901 17.457 5.99901 16.904C5.99901 11.39 10.485 6.90399 15.999 6.90399C16.552 6.90399 16.999 7.35099 16.999 7.90399C16.999 8.45699 16.551 8.90399 15.999 8.90399Z" fill="#FF4757"/>
</svg>
